<svg xmlns="http://www.w3.org/2000/svg" version="1.1" xmlns:xlink="http://www.w3.org/1999/xlink" viewBox="0 0 200 200" width="200" height="200"><rect width="200" height="200" fill="url('#gradient')"></rect><defs><linearGradient id="gradient" gradientTransform="rotate(106 0.5 0.5)"><stop offset="0%" stop-color="#f1eee5"></stop><stop offset="100%" stop-color="#d5c3a1"></stop></linearGradient></defs><g><g fill="#1d425b" transform="matrix(5.524470134874759,0,0,5.524470134874759,79.61818096656101,142.01113668195546)" stroke="#778ca7" stroke-width="0.75"><path d="M4.95 0L1.65 0L1.65-8.28L0.12-8.28L0.12-10.57L1.65-10.57L1.65-11.41Q1.65-13.21 2.71-14.21Q3.78-15.21 5.70-15.21L5.70-15.21Q6.41-15.21 7.25-15L7.25-15L7.26-12.58Q6.95-12.67 6.45-12.67L6.45-12.67Q4.95-12.67 4.95-11.38L4.95-11.38L4.95-10.57L7.01-10.57L7.01-8.28L4.95-8.28L4.95 0Z"></path></g></g></svg>